<svg width="26" height="26" viewBox="0 0 26 26" fill="none" xmlns="http://www.w3.org/2000/svg">
<g clip-path="url(#clip0_316_447)">
<path d="M6.06668 13.8666H5.20001V12.1333H6.06668C6.29653 12.1333 6.51697 12.2246 6.6795 12.3871C6.84204 12.5497 6.93335 12.7701 6.93335 13C6.93335 13.2298 6.84204 13.4503 6.6795 13.6128C6.51697 13.7753 6.29653 13.8666 6.06668 13.8666ZM12.1333 17.3333V12.1333H13C13.2299 12.1333 13.4503 12.2246 13.6128 12.3871C13.7754 12.5497 13.8667 12.7701 13.8667 13V16.4666C13.8667 16.6965 13.7754 16.9169 13.6128 17.0795C13.4503 17.242 13.2299 17.3333 13 17.3333H12.1333Z" fill="#011627"/>
<path fill-rule="evenodd" clip-rule="evenodd" d="M1.73334 2.6C1.73334 1.91044 2.00727 1.24912 2.49486 0.761522C2.98245 0.273928 3.64377 0 4.33334 0L18.5588 0L24.2667 5.70787V23.4C24.2667 24.0896 23.9927 24.7509 23.5051 25.2385C23.0176 25.7261 22.3562 26 21.6667 26H4.33334C3.64377 26 2.98245 25.7261 2.49486 25.2385C2.00727 24.7509 1.73334 24.0896 1.73334 23.4V2.6ZM6.06667 10.4H3.46667V19.0667H5.2V15.6H6.06667C6.75623 15.6 7.41755 15.3261 7.90515 14.8385C8.39274 14.3509 8.66667 13.6896 8.66667 13C8.66667 12.3104 8.39274 11.6491 7.90515 11.1615C7.41755 10.6739 6.75623 10.4 6.06667 10.4ZM13 10.4H10.4V19.0667H13C13.6896 19.0667 14.3509 18.7927 14.8385 18.3051C15.3261 17.8176 15.6 17.1562 15.6 16.4667V13C15.6 12.3104 15.3261 11.6491 14.8385 11.1615C14.3509 10.6739 13.6896 10.4 13 10.4ZM17.3333 19.0667V10.4H22.5333V12.1333H19.0667V13.8667H20.8V15.6H19.0667V19.0667H17.3333Z" fill="#011627"/>
</g>
<defs>
<clipPath id="clip0_316_447">
<rect width="26" height="26" fill="white"/>
</clipPath>
</defs>
</svg>
