<svg width="98" height="78" viewBox="0 0 98 78" fill="none" xmlns="http://www.w3.org/2000/svg">
<path d="M22.05 0C25.2989 0 28.4147 1.28404 30.7121 3.56964C33.0094 5.85524 34.3 8.95517 34.3 12.1875C34.3 15.4198 33.0094 18.5198 30.7121 20.8054C28.4147 23.091 25.2989 24.375 22.05 24.375C18.8011 24.375 15.6853 23.091 13.3879 20.8054C11.0906 18.5198 9.8 15.4198 9.8 12.1875C9.8 8.95517 11.0906 5.85524 13.3879 3.56964C15.6853 1.28404 18.8011 0 22.05 0ZM78.4 0C81.6489 0 84.7647 1.28404 87.0621 3.56964C89.3594 5.85524 90.65 8.95517 90.65 12.1875C90.65 15.4198 89.3594 18.5198 87.0621 20.8054C84.7647 23.091 81.6489 24.375 78.4 24.375C75.1511 24.375 72.0353 23.091 69.7379 20.8054C67.4406 18.5198 66.15 15.4198 66.15 12.1875C66.15 8.95517 67.4406 5.85524 69.7379 3.56964C72.0353 1.28404 75.1511 0 78.4 0ZM0 45.5051C0 36.532 7.31937 29.25 16.3384 29.25H22.8769C25.3116 29.25 27.6238 29.7832 29.7063 30.7277C29.5072 31.8246 29.4153 32.9672 29.4153 34.125C29.4153 39.9445 31.9878 45.1699 36.0456 48.75C36.015 48.75 35.9844 48.75 35.9384 48.75H3.26156C1.47 48.75 0 47.2875 0 45.5051ZM62.0616 48.75C62.0309 48.75 62.0003 48.75 61.9544 48.75C66.0275 45.1699 68.5847 39.9445 68.5847 34.125C68.5847 32.9672 68.4775 31.8398 68.2938 30.7277C70.3763 29.768 72.6884 29.25 75.1231 29.25H81.6616C90.6806 29.25 98 36.532 98 45.5051C98 47.3027 96.53 48.75 94.7384 48.75H62.0616ZM34.3 34.125C34.3 30.2462 35.8487 26.5263 38.6055 23.7836C41.3623 21.0408 45.1013 19.5 49 19.5C52.8987 19.5 56.6377 21.0408 59.3945 23.7836C62.1513 26.5263 63.7 30.2462 63.7 34.125C63.7 38.0038 62.1513 41.7237 59.3945 44.4664C56.6377 47.2092 52.8987 48.75 49 48.75C45.1013 48.75 41.3623 47.2092 38.6055 44.4664C35.8487 41.7237 34.3 38.0038 34.3 34.125ZM19.6 73.9324C19.6 62.7199 28.7416 53.625 40.0116 53.625H57.9884C69.2584 53.625 78.4 62.7199 78.4 73.9324C78.4 76.1719 76.5778 78 74.3116 78H23.6884C21.4375 78 19.6 76.1871 19.6 73.9324Z" fill="#437FF7"/>
</svg>
